<svg xmlns="http://www.w3.org/2000/svg" xmlns:xlink="http://www.w3.org/1999/xlink" width="100" zoomAndPan="magnify" viewBox="0 0 75 74.999997" height="100" preserveAspectRatio="xMidYMid meet" version="1.0"><defs><clipPath id="4d92814783"><path d="M 34 23 L 40 23 L 40 58 L 34 58 Z M 34 23 " clip-rule="nonzero"/></clipPath><clipPath id="d06b60c2ec"><path d="M 34.949219 23.867188 L 40.136719 23.886719 L 40.015625 57.59375 L 34.832031 57.574219 Z M 34.949219 23.867188 " clip-rule="nonzero"/></clipPath><clipPath id="558091f9d1"><path d="M 34.949219 23.867188 L 40.136719 23.886719 L 40.015625 57.59375 L 34.832031 57.574219 Z M 34.949219 23.867188 " clip-rule="nonzero"/></clipPath><clipPath id="98290233cb"><path d="M 36 53 L 39 53 L 39 56 L 36 56 Z M 36 53 " clip-rule="nonzero"/></clipPath><clipPath id="94547143c1"><path d="M 36.21875 53.1875 L 38.691406 53.195312 L 38.683594 55.671875 L 36.207031 55.660156 Z M 36.21875 53.1875 " clip-rule="nonzero"/></clipPath><clipPath id="3e53a500c5"><path d="M 37.457031 53.191406 C 36.773438 53.1875 36.214844 53.742188 36.214844 54.425781 C 36.210938 55.109375 36.761719 55.664062 37.445312 55.667969 C 38.128906 55.667969 38.6875 55.117188 38.6875 54.433594 C 38.691406 53.75 38.140625 53.191406 37.457031 53.191406 Z M 37.457031 53.191406 " clip-rule="nonzero"/></clipPath></defs><g clip-path="url(#4d92814783)"><g clip-path="url(#d06b60c2ec)"><g clip-path="url(#558091f9d1)"><path fill="#ffffff" d="M 37.558594 23.871094 L 39.992188 54.777344 C 40.050781 55.488281 39.804688 56.191406 39.320312 56.714844 C 38.835938 57.238281 38.152344 57.535156 37.441406 57.53125 C 36.726562 57.53125 36.046875 57.226562 35.566406 56.703125 C 35.082031 56.175781 34.84375 55.472656 34.90625 54.761719 Z M 37.558594 23.871094 " fill-opacity="1" fill-rule="evenodd"/></g></g></g><g clip-path="url(#98290233cb)"><g clip-path="url(#94547143c1)"><g clip-path="url(#3e53a500c5)"><path fill="#000000" d="M 36.21875 53.1875 L 38.691406 53.195312 L 38.683594 55.671875 L 36.207031 55.660156 Z M 36.21875 53.1875 " fill-opacity="1" fill-rule="nonzero"/></g></g></g></svg>