<svg xmlns="http://www.w3.org/2000/svg" xmlns:xlink="http://www.w3.org/1999/xlink" width="500" zoomAndPan="magnify" viewBox="0 0 375 374.999991" height="500" preserveAspectRatio="xMidYMid meet" version="1.0"><defs><clipPath id="35f70b7f52"><path d="M 37.5 35.984375 L 337.5 35.984375 L 337.5 338.984375 L 37.5 338.984375 Z M 37.5 35.984375 " clip-rule="nonzero"/></clipPath></defs><g clip-path="url(#35f70b7f52)"><path fill="#ffffff" d="M 44.796875 83.234375 C 40.875 83.234375 37.691406 80.054688 37.691406 76.132812 C 37.691406 72.210938 40.875 69.027344 44.796875 69.027344 L 73.265625 69.027344 C 74.742188 60.789062 78.722656 53.429688 84.390625 47.746094 C 91.648438 40.488281 101.691406 35.984375 112.773438 35.984375 C 123.855469 35.984375 133.898438 40.472656 141.160156 47.746094 C 146.839844 53.429688 150.820312 60.789062 152.28125 69.027344 L 330.375 69.027344 C 334.296875 69.027344 337.476562 72.210938 337.476562 76.132812 C 337.476562 80.054688 334.296875 83.234375 330.375 83.234375 L 152.28125 83.234375 C 150.804688 91.476562 146.828125 98.835938 141.160156 104.515625 C 133.898438 111.777344 123.855469 116.28125 112.773438 116.28125 C 101.691406 116.28125 91.648438 111.789062 84.390625 104.515625 C 78.722656 98.835938 74.730469 91.476562 73.265625 83.234375 Z M 112.773438 258.785156 C 123.855469 258.785156 133.898438 263.273438 141.160156 270.546875 C 146.839844 276.230469 150.820312 283.589844 152.28125 291.828125 L 330.375 291.828125 C 334.296875 291.828125 337.476562 295.011719 337.476562 298.933594 C 337.476562 302.851562 334.296875 306.035156 330.375 306.035156 L 152.28125 306.035156 C 150.804688 314.273438 146.828125 321.632812 141.160156 327.316406 C 133.898438 334.574219 123.855469 339.078125 112.773438 339.078125 C 101.691406 339.078125 91.648438 334.589844 84.390625 327.316406 C 78.722656 321.632812 74.730469 314.273438 73.265625 306.035156 L 44.796875 306.035156 C 40.875 306.035156 37.691406 302.851562 37.691406 298.933594 C 37.691406 295.011719 40.875 291.828125 44.796875 291.828125 L 73.265625 291.828125 C 74.742188 283.589844 78.722656 276.230469 84.390625 270.546875 C 91.648438 263.289062 101.691406 258.785156 112.773438 258.785156 Z M 131.113281 280.589844 C 126.425781 275.902344 119.933594 272.992188 112.773438 272.992188 C 105.613281 272.992188 99.121094 275.890625 94.433594 280.589844 C 89.746094 285.28125 86.832031 291.773438 86.832031 298.933594 C 86.832031 306.09375 89.730469 312.585938 94.433594 317.273438 C 99.121094 321.960938 105.613281 324.871094 112.773438 324.871094 C 119.933594 324.871094 126.425781 321.976562 131.113281 317.273438 C 135.804688 312.585938 138.699219 306.09375 138.699219 298.933594 C 138.699219 291.773438 135.804688 285.292969 131.113281 280.589844 Z M 262.394531 161.597656 C 255.238281 161.597656 248.742188 164.496094 244.054688 169.199219 C 239.367188 173.886719 236.46875 180.378906 236.46875 187.539062 C 236.46875 194.699219 239.367188 201.191406 244.054688 205.878906 C 248.742188 210.566406 255.234375 213.480469 262.394531 213.480469 C 269.554688 213.480469 276.046875 210.582031 280.738281 205.878906 C 285.425781 201.191406 288.335938 194.699219 288.335938 187.539062 C 288.335938 180.378906 285.4375 173.886719 280.738281 169.199219 C 276.046875 164.511719 269.554688 161.597656 262.394531 161.597656 Z M 234.011719 159.15625 C 241.269531 151.894531 251.316406 147.390625 262.394531 147.390625 C 273.476562 147.390625 283.519531 151.894531 290.78125 159.15625 C 296.449219 164.824219 300.441406 172.195312 301.90625 180.4375 L 330.375 180.4375 C 334.296875 180.4375 337.476562 183.617188 337.476562 187.539062 C 337.476562 191.460938 334.296875 194.640625 330.375 194.640625 L 301.90625 194.640625 C 300.425781 202.882812 296.449219 210.242188 290.78125 215.921875 C 283.519531 223.183594 273.476562 227.6875 262.394531 227.6875 C 251.316406 227.6875 241.269531 223.183594 234.011719 215.921875 C 228.328125 210.253906 224.351562 202.882812 222.886719 194.640625 L 44.796875 194.640625 C 40.875 194.640625 37.691406 191.460938 37.691406 187.539062 C 37.691406 183.617188 40.875 180.4375 44.796875 180.4375 L 222.886719 180.4375 C 224.367188 172.195312 228.34375 164.835938 234.011719 159.15625 Z M 131.113281 57.804688 C 126.425781 53.117188 119.933594 50.207031 112.773438 50.207031 C 105.613281 50.207031 99.121094 53.105469 94.433594 57.804688 C 89.746094 62.492188 86.832031 68.988281 86.832031 76.144531 C 86.832031 83.304688 89.730469 89.785156 94.433594 94.488281 C 99.121094 99.175781 105.613281 102.085938 112.773438 102.085938 C 119.933594 102.085938 126.425781 99.1875 131.113281 94.488281 C 135.804688 89.800781 138.699219 83.304688 138.699219 76.144531 C 138.699219 68.988281 135.804688 62.492188 131.113281 57.804688 Z M 131.113281 57.804688 " fill-opacity="1" fill-rule="nonzero"/></g></svg>