<svg xmlns="http://www.w3.org/2000/svg" xmlns:xlink="http://www.w3.org/1999/xlink" width="500" zoomAndPan="magnify" viewBox="0 0 375 374.999991" height="500" preserveAspectRatio="xMidYMid meet" version="1.0"><defs><clipPath id="a46bc80f54"><path d="M 59.03125 57.730469 L 316 57.730469 L 316 317.230469 L 59.03125 317.230469 Z M 59.03125 57.730469 " clip-rule="nonzero"/></clipPath></defs><g clip-path="url(#a46bc80f54)"><path fill="#ffffff" d="M 65.273438 98.203125 C 61.914062 98.203125 59.1875 95.476562 59.1875 92.117188 C 59.1875 88.757812 61.914062 86.035156 65.273438 86.035156 L 89.65625 86.035156 C 90.921875 78.976562 94.328125 72.675781 99.183594 67.808594 C 105.402344 61.589844 114.003906 57.730469 123.496094 57.730469 C 132.984375 57.730469 141.589844 61.578125 147.804688 67.808594 C 152.671875 72.675781 156.078125 78.976562 157.332031 86.035156 L 309.867188 86.035156 C 313.222656 86.035156 315.949219 88.757812 315.949219 92.117188 C 315.949219 95.476562 313.222656 98.203125 309.867188 98.203125 L 157.332031 98.203125 C 156.066406 105.257812 152.660156 111.5625 147.804688 116.429688 C 141.589844 122.644531 132.984375 126.503906 123.496094 126.503906 C 114.003906 126.503906 105.402344 122.660156 99.183594 116.429688 C 94.328125 111.5625 90.910156 105.257812 89.65625 98.203125 Z M 123.496094 248.558594 C 132.984375 248.558594 141.589844 252.402344 147.804688 258.632812 C 152.671875 263.5 156.078125 269.800781 157.332031 276.859375 L 309.867188 276.859375 C 313.222656 276.859375 315.949219 279.585938 315.949219 282.941406 C 315.949219 286.300781 313.222656 289.027344 309.867188 289.027344 L 157.332031 289.027344 C 156.066406 296.082031 152.660156 302.386719 147.804688 307.253906 C 141.589844 313.472656 132.984375 317.328125 123.496094 317.328125 C 114.003906 317.328125 105.402344 313.484375 99.183594 307.253906 C 94.328125 302.386719 90.910156 296.082031 89.65625 289.027344 L 65.273438 289.027344 C 61.914062 289.027344 59.1875 286.300781 59.1875 282.941406 C 59.1875 279.585938 61.914062 276.859375 65.273438 276.859375 L 89.65625 276.859375 C 90.921875 269.800781 94.328125 263.5 99.183594 258.632812 C 105.402344 252.414062 114.003906 248.558594 123.496094 248.558594 Z M 139.203125 267.234375 C 135.1875 263.21875 129.628906 260.722656 123.496094 260.722656 C 117.363281 260.722656 111.800781 263.207031 107.785156 267.234375 C 103.769531 271.25 101.277344 276.808594 101.277344 282.941406 C 101.277344 289.074219 103.757812 294.636719 107.785156 298.652344 C 111.800781 302.667969 117.363281 305.160156 123.496094 305.160156 C 129.628906 305.160156 135.1875 302.679688 139.203125 298.652344 C 143.21875 294.636719 145.699219 289.074219 145.699219 282.941406 C 145.699219 276.808594 143.21875 271.261719 139.203125 267.234375 Z M 251.644531 165.316406 C 245.511719 165.316406 239.949219 167.800781 235.9375 171.828125 C 231.921875 175.84375 229.4375 181.402344 229.4375 187.535156 C 229.4375 193.667969 231.921875 199.230469 235.9375 203.246094 C 239.949219 207.261719 245.511719 209.753906 251.644531 209.753906 C 257.777344 209.753906 263.335938 207.273438 267.351562 203.246094 C 271.367188 199.230469 273.863281 193.667969 273.863281 187.535156 C 273.863281 181.402344 271.378906 175.84375 267.351562 171.828125 C 263.335938 167.8125 257.777344 165.316406 251.644531 165.316406 Z M 227.332031 163.226562 C 233.550781 157.007812 242.152344 153.152344 251.644531 153.152344 C 261.136719 153.152344 269.738281 157.007812 275.953125 163.226562 C 280.808594 168.082031 284.230469 174.394531 285.480469 181.453125 L 309.867188 181.453125 C 313.222656 181.453125 315.949219 184.179688 315.949219 187.535156 C 315.949219 190.894531 313.222656 193.621094 309.867188 193.621094 L 285.480469 193.621094 C 284.21875 200.675781 280.808594 206.980469 275.953125 211.847656 C 269.738281 218.066406 261.136719 221.921875 251.644531 221.921875 C 242.152344 221.921875 233.550781 218.066406 227.332031 211.847656 C 222.464844 206.992188 219.058594 200.675781 217.804688 193.621094 L 65.273438 193.621094 C 61.914062 193.621094 59.1875 190.894531 59.1875 187.535156 C 59.1875 184.179688 61.914062 181.453125 65.273438 181.453125 L 217.804688 181.453125 C 219.070312 174.394531 222.476562 168.09375 227.332031 163.226562 Z M 139.203125 76.421875 C 135.1875 72.40625 129.628906 69.910156 123.496094 69.910156 C 117.363281 69.910156 111.800781 72.394531 107.785156 76.421875 C 103.769531 80.4375 101.277344 85.996094 101.277344 92.128906 C 101.277344 98.261719 103.757812 103.8125 107.785156 107.839844 C 111.800781 111.855469 117.363281 114.347656 123.496094 114.347656 C 129.628906 114.347656 135.1875 111.867188 139.203125 107.839844 C 143.21875 103.824219 145.699219 98.261719 145.699219 92.128906 C 145.699219 85.996094 143.21875 80.4375 139.203125 76.421875 Z M 139.203125 76.421875 " fill-opacity="1" fill-rule="nonzero"/></g></svg>